<svg id="Layer_1" data-name="Layer 1" xmlns="http://www.w3.org/2000/svg" viewBox="0 0 8.25 9"><defs><style>.cls-1{fill:none;}</style></defs><title>Artboard 1</title><path class="cls-1" d="M6.88.75H1.38a.71.71,0,0,0-.69.75v6a.71.71,0,0,0,.69.75h5.5a.71.71,0,0,0,.68-.75v-6A.71.71,0,0,0,6.88.75Zm0,4.5H6.19V2.78L3.25,6l-.48-.52L5.7,2.25H3.44V1.5H6.88Z"/><polygon points="3.44 2.25 5.7 2.25 2.77 5.46 3.25 5.98 6.19 2.78 6.19 5.25 6.88 5.25 6.88 1.5 3.44 1.5 3.44 2.25"/><path d="M6.88,0H1.38A1.45,1.45,0,0,0,0,1.5v6A1.45,1.45,0,0,0,1.38,9h5.5A1.45,1.45,0,0,0,8.25,7.5v-6A1.45,1.45,0,0,0,6.88,0Zm.68,7.5a.71.71,0,0,1-.68.75H1.38A.71.71,0,0,1,.69,7.5v-6A.71.71,0,0,1,1.38.75h5.5a.71.71,0,0,1,.68.75Z"/></svg>