<svg width="123" height="51" viewBox="0 0 123 51" fill="none" xmlns="http://www.w3.org/2000/svg">
<path d="M3.12871 26.2499H12.9185C15.4417 26.2499 17.5611 28.3025 17.5611 30.8437C17.5611 31.3324 17.5611 32.5053 17.5611 33.0917C17.5611 35.633 15.4417 37.6855 12.9185 37.6855H3.12871H0C0 31.6256 0 24.7838 0 18.7239H16.35V21.7538H3.12871V26.2499ZM3.12871 29.2799V34.5578H12.9185C13.7259 34.5578 14.4324 33.8737 14.4324 32.994C14.4324 32.4076 14.4324 31.3324 14.4324 30.746C14.4324 29.8663 13.7259 29.1821 12.9185 29.1821L3.12871 29.2799Z" fill="#4F4949"/>
<path d="M46.7288 29.964H56.5186C59.0418 29.964 61.1612 27.9114 61.1612 25.3702C61.1612 24.8815 61.1612 23.7086 61.1612 23.1221C61.1612 20.5809 59.0418 18.5283 56.5186 18.5283H46.7288H43.6001C43.6001 24.686 43.6001 31.3323 43.6001 37.49H46.7288C46.7288 35.0465 46.7288 32.5052 46.7288 29.964ZM46.7288 26.934V21.656H56.5186C57.326 21.656 58.0325 22.3402 58.0325 23.2199C58.0325 23.8063 58.0325 24.8815 58.0325 25.4679C58.0325 26.3476 57.326 27.0318 56.5186 27.0318L46.7288 26.934Z" fill="#4F4949"/>
<path fill-rule="evenodd" clip-rule="evenodd" d="M69.437 18.626H81.5482V21.6559H69.437C68.6296 21.6559 67.9231 22.3401 67.9231 23.2198C67.9231 25.5656 67.9231 30.7458 67.9231 33.0916C67.9231 33.9712 68.6296 34.6554 69.437 34.6554H81.5482V37.6854C76.9056 37.6854 74.0796 37.6854 69.437 37.6854C66.9139 37.6854 64.7944 35.6328 64.7944 33.0916C64.7944 26.7384 64.7944 29.5729 64.7944 23.2198C64.7944 20.6785 66.813 18.626 69.437 18.626Z" fill="#4F4949"/>
<path d="M29.975 22.0469L33.5074 29.3774H26.3416L29.975 22.0469ZM24.8277 32.3097H35.0213L37.3426 37.5876H40.7741L31.6907 18.626C30.4796 18.626 29.3694 18.626 28.1583 18.626L19.075 37.5876H22.5064L24.8277 32.3097Z" fill="#4F4949"/>
<path d="M55.0047 47.1663H59.1426C60.3537 47.1663 61.363 46.1889 61.363 45.016C61.363 44.8205 61.363 43.8431 61.363 43.6476C61.363 42.4747 60.3537 41.4973 59.1426 41.4973H55.0047H53.188C53.188 44.3318 53.188 47.655 53.188 50.4894H55.0047C55.0047 49.4143 55.0047 48.3392 55.0047 47.1663ZM55.0047 45.5047V43.3544H58.7389C59.1426 43.3544 59.4454 43.6476 59.4454 44.0386C59.4454 44.3318 59.4454 44.5273 59.4454 44.7228C59.4454 45.1137 59.1426 45.4069 58.7389 45.4069H55.0047V45.5047Z" fill="#4F4949"/>
<path fill-rule="evenodd" clip-rule="evenodd" d="M43.6001 41.595H51.4723V43.3543H45.4168V50.5871H43.6001V41.595Z" fill="#4F4949"/>
<path fill-rule="evenodd" clip-rule="evenodd" d="M64.2899 50.5873H66.2075C67.2168 48.9257 71.5566 41.6929 71.5566 41.6929H69.5381L66.8131 46.4822L63.8862 41.6929H61.8677L65.7029 48.1437C65.501 48.437 64.6936 50.0008 64.2899 50.5873Z" fill="#4F4949"/>
<path fill-rule="evenodd" clip-rule="evenodd" d="M72.5659 41.595V50.5871H74.2817V43.3543H79.7317V49.121V50.5871H81.5484V41.595H72.5659Z" fill="#4F4949"/>
<path fill-rule="evenodd" clip-rule="evenodd" d="M106.5 50.0978C106.691 50.1992 106.691 50.4021 106.5 50.5035L105.735 50.9093C105.544 51.0107 105.161 51.0107 104.97 50.9093L94.4495 45.3302C94.2582 45.2288 94.0669 44.9244 94.0669 44.7216V41.0698C94.0669 40.8669 94.2582 40.7655 94.3538 40.8669L106.5 50.0978Z" fill="#4F4949"/>
<path fill-rule="evenodd" clip-rule="evenodd" d="M103.344 12.2616C103.153 12.3631 102.961 12.6674 102.866 12.8703L97.7969 40.5627C97.7969 40.7656 97.8925 41.0699 98.0838 41.2728L100.284 42.9972C100.475 43.0987 100.666 43.0987 100.857 42.8958L122.759 0.291986C122.855 0.0891109 122.759 -0.0123267 122.568 0.0891109L103.344 12.2616Z" fill="url(#paint0_linear)"/>
<path fill-rule="evenodd" clip-rule="evenodd" d="M94.4495 18.3479C94.2582 18.4493 94.1626 18.7537 94.1626 19.058V37.8239C94.1626 38.0268 94.3539 38.3311 94.4495 38.534L95.9798 39.6498C96.171 39.7512 96.3623 39.7512 96.3623 39.4469L100.188 14.3918C100.188 14.189 100.092 14.0875 99.901 14.189L94.4495 18.3479Z" fill="url(#paint1_linear)"/>
<path fill-rule="evenodd" clip-rule="evenodd" d="M102.292 44.0115C102.196 44.2144 102.196 44.5187 102.388 44.6202L104.683 46.3446C104.874 46.446 105.161 46.446 105.353 46.3446L120.942 32.3462C121.133 32.1433 121.229 31.839 121.133 31.6361L117.308 17.6378C117.212 17.4349 117.116 17.4349 117.021 17.6378L102.292 44.0115Z" fill="url(#paint2_linear)"/>
<path fill-rule="evenodd" clip-rule="evenodd" d="M120.368 36.7081C120.272 36.5052 120.081 36.4038 119.89 36.6067L106.691 47.4605C106.5 47.5619 106.5 47.8663 106.691 47.9677L108.222 49.1849C108.413 49.2864 108.7 49.3878 108.891 49.2864L120.655 44.0116C120.846 43.9102 120.942 43.6059 120.846 43.403L120.368 36.7081Z" fill="url(#paint3_linear)"/>
<defs>
<linearGradient id="paint0_linear" x1="110.595" y1="14.7804" x2="104.161" y2="47.4416" gradientUnits="userSpaceOnUse">
<stop stop-color="#C32118"/>
<stop offset="1" stop-color="#B32318"/>
</linearGradient>
<linearGradient id="paint1_linear" x1="97.1323" y1="40.2075" x2="97.8971" y2="17.0266" gradientUnits="userSpaceOnUse">
<stop stop-color="#6BB22D"/>
<stop offset="1" stop-color="#A6C714"/>
</linearGradient>
<linearGradient id="paint2_linear" x1="111.454" y1="41.3821" x2="115.395" y2="18.7846" gradientUnits="userSpaceOnUse">
<stop stop-color="#F8C500"/>
<stop offset="1" stop-color="#FEDB00"/>
</linearGradient>
<linearGradient id="paint3_linear" x1="121.298" y1="37.7139" x2="110.953" y2="50.4571" gradientUnits="userSpaceOnUse">
<stop stop-color="#6CBDEB"/>
<stop offset="1" stop-color="#2DA1DB"/>
</linearGradient>
</defs>
</svg>
