<svg width="191" height="16" viewBox="0 0 191 16" fill="none" xmlns="http://www.w3.org/2000/svg">
<g clip-path="url(#clip0)">
<path fill-rule="evenodd" clip-rule="evenodd" d="M34.0813 15.8786C32.5289 15.8786 31.2703 14.5829 31.2703 12.9847V9.44691H21.2572V12.9847V15.8786C19.7048 15.8786 18.446 14.5829 18.446 12.9847C18.446 8.69679 18.4462 4.4091 18.4462 0.121345C19.9987 0.121345 21.2572 1.41707 21.2572 3.01523V6.55304H31.2703L31.2701 3.01523C31.2701 1.41707 32.5289 0.121345 34.0813 0.121345C34.0813 5.37378 34.0813 10.6264 34.0813 15.8786ZM178.176 15.8786C176.623 15.8784 175.365 14.5829 175.365 12.9847V3.01523C175.365 1.41707 176.623 0.121574 178.176 0.121345H188.189C189.741 0.121345 191 1.41707 191 3.01523C191 7.30299 191 11.5907 191 15.8786C189.448 15.8786 188.189 14.5829 188.189 12.9847V3.01523H178.176V12.9846H184.228C185.788 13.0104 187.038 14.26 187.038 15.8786C184.084 15.8786 181.13 15.8786 178.176 15.8786ZM151.973 3.01523C151.973 1.41707 153.231 0.121345 154.784 0.121345C154.784 5.37361 154.783 10.626 154.783 15.8786H141.959C140.407 15.8786 139.148 14.5829 139.148 12.9847V0.121345C140.701 0.121345 141.959 1.41707 141.959 3.01523V12.9847H151.973V3.01523ZM12.8243 3.01523C12.8243 1.41707 14.083 0.121345 15.6355 0.121345C15.6355 5.37361 15.6351 10.626 15.6351 15.8786H2.81098C1.25837 15.8786 0 14.5829 0 12.9847V0.121345C1.55261 0.121345 2.81098 1.41707 2.81098 3.01523V12.9847H12.8243V3.01523ZM165.614 9.44709V9.44691H160.406V12.9847V15.8786C158.853 15.8786 157.595 14.5829 157.595 12.9847V3.01523V0.121345C159.147 0.121345 160.406 1.41707 160.406 3.01523V6.55304H165.614L169.852 1.26623C171.254 -0.483509 173.322 -0.0885715 173.995 0.496262L167.99 8.0001L173.995 15.5039C173.322 16.0885 171.254 16.4835 169.852 14.7339L165.614 9.44709ZM130.305 12.9849V15.8788C128.753 15.8788 127.494 14.5831 127.494 12.9849V3.01546H122.924H120.113C120.113 1.41724 121.371 0.121572 122.924 0.121572V0.121345H134.876V0.121572H137.687C137.687 1.71974 136.428 3.01546 134.876 3.01546H130.305V12.9849ZM105.785 15.8786C104.233 15.8784 102.975 14.5829 102.975 12.9847V3.01523C102.975 1.41707 104.233 0.121574 105.785 0.121345H115.799C117.351 0.121345 118.61 1.41707 118.61 3.01523C118.61 7.30299 118.61 11.5907 118.61 15.8786C117.057 15.8786 115.799 14.5829 115.799 12.9847V3.01523H105.786L105.785 12.9846H111.837C113.397 13.0104 114.647 14.26 114.647 15.8786C111.693 15.8786 108.739 15.8786 105.785 15.8786ZM86.0043 12.9812L79.4061 3.03182C79.4061 7.31303 79.4063 11.594 79.4063 15.875C77.8537 15.875 76.5953 14.5794 76.5951 12.9812V3.01173C76.5951 0.0871613 80.3347 -0.959738 81.8023 1.49813L88.3386 11.3343L94.9046 1.51672C96.5703 -0.974017 100.164 0.119346 100.164 3.01173V12.9812C100.163 14.5794 98.905 15.875 97.3525 15.875C97.3525 11.5872 97.3527 7.2996 97.3527 3.01173L90.6729 12.9812C89.4958 14.5401 87.1814 14.5401 86.0043 12.9812ZM60.9603 12.9846H70.9734V3.01529H60.9603V12.9846ZM70.9734 15.8787H60.96C59.4077 15.8785 58.1495 14.583 58.1493 12.9848V3.01529C58.1493 1.41712 59.4077 0.121644 60.96 0.121415H70.9734C72.5258 0.121415 73.7843 1.41712 73.7843 3.01529L73.7845 12.9846C73.7845 14.5828 72.5258 15.8787 70.9734 15.8787ZM44.7098 3.01529H39.7032V10.0909H44.7098V3.01529ZM47.5209 10.0909H52.5273V3.01529H47.5209V10.0909ZM47.5208 12.9848V15.8787C45.9683 15.8787 44.7098 14.583 44.7098 12.9848L39.7032 12.9849C38.1506 12.9849 36.8923 11.6891 36.8923 10.0909L36.8921 3.01529C36.8921 1.41712 38.1506 0.121415 39.7032 0.121415H52.5275C54.0799 0.121644 55.3385 1.41712 55.3385 3.01529L55.3383 10.0909C55.3383 11.6891 54.0799 12.9849 52.5273 12.9849L47.5208 12.9848Z" fill="#0056A2"/>
</g>
<defs>
<clipPath id="clip0">
<rect width="191" height="16" fill="white"/>
</clipPath>
</defs>
</svg>
