<?xml version="1.0" encoding="UTF-8"?>
<svg width="59px" height="59px" viewBox="0 0 59 59" version="1.1" xmlns="http://www.w3.org/2000/svg" xmlns:xlink="http://www.w3.org/1999/xlink">
    <!-- Generator: Sketch 55.2 (78181) - https://sketchapp.com -->
    <title>since</title>
    <desc>Created with Sketch.</desc>
    <g id="Дизайн" stroke="none" stroke-width="1" fill="none" fill-rule="evenodd">
        <g id="Кейс-Copy" transform="translate(-226.000000, -30.000000)" fill="#000000" fill-rule="nonzero">
            <g id="since" transform="translate(226.000000, 30.000000)">
                <path d="M26.0900538,18.952957 L26.7244624,15.3844086 L24.186828,12.8467742 L27.7553763,12.2916667 L29.3413978,9.04032258 L30.9274194,12.2916667 L34.4959677,12.8467742 L31.9583333,15.3844086 L32.5927419,18.952957 L29.4206989,17.2876344 L26.0900538,18.952957 Z M29.2620968,16.4153226 L31.4032258,17.5255376 L31.0067204,15.1465054 L32.7513441,13.4811828 L30.3723118,13.1639785 L29.3413978,11.0228495 L28.3104839,13.1639785 L25.9314516,13.4811828 L27.6760753,15.1465054 L27.2795699,17.5255376 L29.2620968,16.4153226 Z M29.5,0 C28.8655914,0 28.3897849,0.475806452 28.3897849,1.11021505 C28.3897849,1.74462366 28.8655914,2.22043011 29.5,2.22043011 C30.1344086,2.22043011 30.6102151,1.74462366 30.6102151,1.11021505 C30.6102151,0.475806452 30.1344086,0 29.5,0 Z M25.6142473,0.237903226 C24.9798387,0.317204301 24.5833333,0.872311828 24.6626344,1.50672043 C24.7419355,2.14112903 25.297043,2.53763441 25.9314516,2.45833333 C26.5658602,2.37903226 26.9623656,1.82392473 26.8830645,1.18951613 C26.8037634,0.555107527 26.2486559,0.158602151 25.6142473,0.237903226 Z M21.8870968,1.03091398 C21.2526882,1.18951613 20.9354839,1.82392473 21.094086,2.37903226 C21.2526882,2.93413978 21.8870968,3.33064516 22.4422043,3.17204301 C23.0766129,3.01344086 23.3938172,2.37903226 23.2352151,1.82392473 C23.0766129,1.18951613 22.4422043,0.872311828 21.8870968,1.03091398 Z M18.2392473,2.22043011 C17.6841398,2.45833333 17.3669355,3.09274194 17.6048387,3.64784946 C17.8427419,4.20295699 18.4771505,4.52016129 19.0322581,4.28225806 C19.5873656,4.04435484 19.9045699,3.40994624 19.6666667,2.85483871 C19.4287634,2.29973118 18.7943548,1.98252688 18.2392473,2.22043011 Z M14.75,3.96505376 C14.1948925,4.28225806 14.0362903,4.99596774 14.3534946,5.47177419 C14.6706989,6.02688172 15.3844086,6.18548387 15.8602151,5.86827957 C16.4153226,5.55107527 16.5739247,4.83736559 16.2567204,4.36155914 C15.9395161,3.80645161 15.3051075,3.64784946 14.75,3.96505376 Z M11.577957,6.1061828 C11.1021505,6.50268817 11.0228495,7.21639785 11.3400538,7.6922043 C11.7365591,8.16801075 12.4502688,8.24731183 12.9260753,7.93010753 C13.4018817,7.53360215 13.4811828,6.81989247 13.1639785,6.34408602 C12.8467742,5.86827957 12.0537634,5.70967742 11.577957,6.1061828 Z M8.6438172,8.6438172 C8.16801075,9.11962366 8.16801075,9.75403226 8.6438172,10.2298387 C9.11962366,10.7056452 9.75403226,10.7056452 10.2298387,10.2298387 C10.7056452,9.75403226 10.7056452,9.11962366 10.2298387,8.6438172 C9.75403226,8.16801075 9.04032258,8.16801075 8.6438172,8.6438172 Z M6.1061828,11.577957 C5.70967742,12.0537634 5.78897849,12.7674731 6.34408602,13.1639785 C6.89919355,13.5604839 7.53360215,13.4811828 7.93010753,12.9260753 C8.3266129,12.4502688 8.24731183,11.7365591 7.6922043,11.3400538 C7.13709677,10.9435484 6.50268817,11.0228495 6.1061828,11.577957 Z M3.96505376,14.75 C3.64784946,15.3051075 3.80645161,15.9395161 4.36155914,16.2567204 C4.91666667,16.5739247 5.55107527,16.4153226 5.86827957,15.8602151 C6.18548387,15.3051075 6.02688172,14.6706989 5.47177419,14.3534946 C4.91666667,14.0362903 4.28225806,14.1948925 3.96505376,14.75 Z M2.22043011,18.2392473 C1.98252688,18.7943548 2.22043011,19.4287634 2.85483871,19.6666667 C3.48924731,19.9045699 4.04435484,19.6666667 4.28225806,19.0322581 C4.52016129,18.4771505 4.28225806,17.8427419 3.64784946,17.6048387 C3.01344086,17.3669355 2.45833333,17.6048387 2.22043011,18.2392473 Z M1.03091398,21.8870968 C0.872311828,22.5215054 1.18951613,23.0766129 1.82392473,23.2352151 C2.45833333,23.3938172 3.01344086,23.0766129 3.17204301,22.4422043 C3.33064516,21.8077957 3.01344086,21.2526882 2.37903226,21.094086 C1.74462366,20.9354839 1.18951613,21.2526882 1.03091398,21.8870968 Z M0.237903226,25.6142473 C0.158602151,26.2486559 0.555107527,26.8037634 1.18951613,26.8830645 C1.82392473,26.9623656 2.37903226,26.5658602 2.45833333,25.9314516 C2.53763441,25.297043 2.14112903,24.7419355 1.50672043,24.6626344 C0.872311828,24.5833333 0.317204301,25.0591398 0.237903226,25.6142473 Z M0,29.5 C0,30.1344086 0.475806452,30.6102151 1.11021505,30.6102151 C1.74462366,30.6102151 2.22043011,30.1344086 2.22043011,29.5 C2.22043011,28.8655914 1.74462366,28.3897849 1.11021505,28.3897849 C0.475806452,28.3897849 0,28.8655914 0,29.5 Z M0.237903226,33.3857527 C0.317204301,34.0201613 0.872311828,34.4166667 1.50672043,34.3373656 C2.14112903,34.2580645 2.53763441,33.702957 2.45833333,33.0685484 C2.37903226,32.4341398 1.82392473,32.0376344 1.18951613,32.1169355 C0.634408602,32.1962366 0.158602151,32.7513441 0.237903226,33.3857527 Z M1.03091398,37.1129032 C1.18951613,37.7473118 1.82392473,38.0645161 2.37903226,37.905914 C3.01344086,37.7473118 3.33064516,37.1129032 3.17204301,36.5577957 C3.01344086,35.9233871 2.37903226,35.6061828 1.82392473,35.7647849 C1.18951613,35.9233871 0.872311828,36.5577957 1.03091398,37.1129032 Z M2.22043011,40.7607527 C2.45833333,41.3158602 3.09274194,41.6330645 3.64784946,41.3951613 C4.20295699,41.1572581 4.52016129,40.5228495 4.28225806,39.9677419 C4.04435484,39.4126344 3.40994624,39.0954301 2.85483871,39.3333333 C2.29973118,39.5712366 1.98252688,40.2056452 2.22043011,40.7607527 Z M3.96505376,44.25 C4.28225806,44.8051075 4.99596774,44.9637097 5.47177419,44.6465054 C6.02688172,44.3293011 6.18548387,43.6155914 5.86827957,43.1397849 C5.55107527,42.5846774 4.83736559,42.4260753 4.36155914,42.7432796 C3.80645161,43.0604839 3.64784946,43.6948925 3.96505376,44.25 Z M6.1061828,47.422043 C6.50268817,47.8978495 7.21639785,47.9771505 7.6922043,47.6599462 C8.16801075,47.2634409 8.24731183,46.5497312 7.93010753,46.0739247 C7.53360215,45.5981183 6.81989247,45.5188172 6.34408602,45.8360215 C5.86827957,46.1532258 5.70967742,46.9462366 6.1061828,47.422043 Z M8.6438172,50.3561828 C9.11962366,50.8319892 9.75403226,50.8319892 10.2298387,50.3561828 C10.7056452,49.8803763 10.7056452,49.2459677 10.2298387,48.7701613 C9.75403226,48.2943548 9.11962366,48.2943548 8.6438172,48.7701613 C8.16801075,49.2459677 8.16801075,49.9596774 8.6438172,50.3561828 Z M11.577957,52.8938172 C12.0537634,53.2903226 12.7674731,53.2110215 13.1639785,52.655914 C13.5604839,52.1801075 13.4811828,51.4663978 12.9260753,51.0698925 C12.4502688,50.6733871 11.7365591,50.7526882 11.3400538,51.3077957 C10.9435484,51.8629032 11.0228495,52.4973118 11.577957,52.8938172 Z M14.75,55.0349462 C15.3051075,55.3521505 15.9395161,55.1935484 16.2567204,54.6384409 C16.5739247,54.0833333 16.4153226,53.4489247 15.8602151,53.1317204 C15.3051075,52.8145161 14.6706989,52.9731183 14.3534946,53.5282258 C14.0362903,54.0833333 14.1948925,54.7177419 14.75,55.0349462 Z M18.2392473,56.7795699 C18.7943548,57.0174731 19.4287634,56.7795699 19.6666667,56.1451613 C19.9045699,55.5107527 19.6666667,54.9556452 19.0322581,54.7177419 C18.4771505,54.4798387 17.8427419,54.7177419 17.6048387,55.3521505 C17.3669355,55.827957 17.6048387,56.5416667 18.2392473,56.7795699 Z M21.8870968,57.969086 C22.5215054,58.1276882 23.0766129,57.8104839 23.2352151,57.1760753 C23.3938172,56.5416667 23.0766129,55.9865591 22.4422043,55.827957 C21.8077957,55.6693548 21.2526882,55.9865591 21.094086,56.6209677 C20.9354839,57.2553763 21.2526882,57.8104839 21.8870968,57.969086 Z M25.6142473,58.7620968 C26.2486559,58.8413978 26.8037634,58.4448925 26.8830645,57.8104839 C26.9623656,57.1760753 26.5658602,56.6209677 25.9314516,56.5416667 C25.297043,56.4623656 24.7419355,56.858871 24.6626344,57.4932796 C24.5833333,58.1276882 25.0591398,58.6827957 25.6142473,58.7620968 Z M29.5,59 C30.1344086,59 30.6102151,58.5241935 30.6102151,57.8897849 C30.6102151,57.2553763 30.1344086,56.7795699 29.5,56.7795699 C28.8655914,56.7795699 28.3897849,57.2553763 28.3897849,57.8897849 C28.3897849,58.5241935 28.8655914,59 29.5,59 Z M33.3857527,58.7620968 C34.0201613,58.6827957 34.4166667,58.1276882 34.3373656,57.4932796 C34.2580645,56.858871 33.702957,56.4623656 33.0685484,56.5416667 C32.4341398,56.6209677 32.0376344,57.1760753 32.1169355,57.8104839 C32.1962366,58.3655914 32.7513441,58.8413978 33.3857527,58.7620968 Z M37.1129032,57.969086 C37.7473118,57.8104839 38.0645161,57.1760753 37.905914,56.6209677 C37.7473118,55.9865591 37.1129032,55.6693548 36.5577957,55.827957 C35.9233871,55.9865591 35.6061828,56.6209677 35.7647849,57.1760753 C35.9233871,57.8104839 36.5577957,58.1276882 37.1129032,57.969086 Z M40.7607527,56.7795699 C41.3158602,56.5416667 41.6330645,55.9072581 41.3951613,55.3521505 C41.1572581,54.797043 40.5228495,54.4798387 39.9677419,54.7177419 C39.4126344,54.9556452 39.0954301,55.5900538 39.3333333,56.1451613 C39.5712366,56.7002688 40.2056452,57.0174731 40.7607527,56.7795699 Z M44.25,55.0349462 C44.8051075,54.7177419 44.9637097,54.0040323 44.6465054,53.5282258 C44.3293011,52.9731183 43.6155914,52.8145161 43.1397849,53.1317204 C42.6639785,53.4489247 42.4260753,54.1626344 42.7432796,54.6384409 C43.0604839,55.1935484 43.6948925,55.3521505 44.25,55.0349462 Z M47.422043,52.8938172 C47.8978495,52.4973118 47.9771505,51.7836022 47.6599462,51.3077957 C47.2634409,50.8319892 46.5497312,50.7526882 46.0739247,51.0698925 C45.5981183,51.4663978 45.5188172,52.1801075 45.8360215,52.655914 C46.2325269,53.2110215 46.9462366,53.2903226 47.422043,52.8938172 Z M50.3561828,50.3561828 C50.8319892,49.8803763 50.8319892,49.2459677 50.3561828,48.7701613 C49.8803763,48.2943548 49.2459677,48.2943548 48.7701613,48.7701613 C48.2943548,49.2459677 48.2943548,49.8803763 48.7701613,50.3561828 C49.2459677,50.8319892 49.9596774,50.8319892 50.3561828,50.3561828 Z M52.8938172,47.422043 C53.2903226,46.9462366 53.2110215,46.2325269 52.655914,45.8360215 C52.1801075,45.4395161 51.4663978,45.5188172 51.0698925,46.0739247 C50.6733871,46.5497312 50.7526882,47.2634409 51.3077957,47.6599462 C51.8629032,48.0564516 52.4973118,47.9771505 52.8938172,47.422043 Z M55.0349462,44.25 C55.3521505,43.6948925 55.1935484,43.0604839 54.6384409,42.7432796 C54.0833333,42.4260753 53.4489247,42.5846774 53.1317204,43.1397849 C52.8145161,43.6948925 52.9731183,44.3293011 53.5282258,44.6465054 C54.0833333,44.9637097 54.7177419,44.8051075 55.0349462,44.25 Z M56.7795699,40.7607527 C57.0174731,40.2056452 56.7795699,39.5712366 56.1451613,39.3333333 C55.5900538,39.0954301 54.9556452,39.3333333 54.7177419,39.9677419 C54.4798387,40.5228495 54.7177419,41.1572581 55.3521505,41.3951613 C55.827957,41.6330645 56.5416667,41.3951613 56.7795699,40.7607527 Z M57.969086,37.1129032 C58.1276882,36.4784946 57.8104839,35.9233871 57.1760753,35.7647849 C56.5416667,35.6061828 55.9865591,35.9233871 55.827957,36.5577957 C55.6693548,37.1922043 55.9865591,37.7473118 56.6209677,37.905914 C57.2553763,38.0645161 57.8104839,37.7473118 57.969086,37.1129032 Z M58.7620968,33.3857527 C58.8413978,32.7513441 58.4448925,32.1962366 57.8104839,32.1169355 C57.1760753,32.0376344 56.6209677,32.4341398 56.5416667,33.0685484 C56.4623656,33.702957 56.858871,34.2580645 57.4932796,34.3373656 C58.1276882,34.4166667 58.6827957,33.9408602 58.7620968,33.3857527 Z M59,29.5 C59,28.8655914 58.5241935,28.3897849 57.8897849,28.3897849 C57.2553763,28.3897849 56.7795699,28.8655914 56.7795699,29.5 C56.7795699,30.1344086 57.2553763,30.6102151 57.8897849,30.6102151 C58.5241935,30.6102151 59,30.1344086 59,29.5 Z M58.7620968,25.6142473 C58.6827957,24.9798387 58.1276882,24.5833333 57.4932796,24.6626344 C56.858871,24.7419355 56.4623656,25.297043 56.5416667,25.9314516 C56.6209677,26.5658602 57.1760753,26.9623656 57.8104839,26.8830645 C58.3655914,26.8037634 58.8413978,26.2486559 58.7620968,25.6142473 Z M57.969086,21.8870968 C57.8104839,21.2526882 57.1760753,20.9354839 56.6209677,21.094086 C56.0658602,21.2526882 55.6693548,21.8870968 55.827957,22.4422043 C55.9865591,23.0766129 56.6209677,23.3938172 57.1760753,23.2352151 C57.8104839,23.0766129 58.1276882,22.4422043 57.969086,21.8870968 Z M56.7795699,18.2392473 C56.5416667,17.6841398 55.9072581,17.3669355 55.3521505,17.6048387 C54.7177419,17.8427419 54.4798387,18.4771505 54.7177419,19.0322581 C54.9556452,19.5873656 55.5900538,19.9045699 56.1451613,19.6666667 C56.7002688,19.4287634 57.0174731,18.7943548 56.7795699,18.2392473 Z M55.0349462,14.75 C54.7177419,14.1948925 54.0040323,14.0362903 53.5282258,14.3534946 C52.9731183,14.6706989 52.8145161,15.3844086 53.1317204,15.8602151 C53.4489247,16.4153226 54.1626344,16.5739247 54.6384409,16.2567204 C55.1935484,15.9395161 55.3521505,15.3051075 55.0349462,14.75 Z M52.8938172,11.577957 C52.4973118,11.1021505 51.7836022,11.0228495 51.3077957,11.3400538 C50.8319892,11.7365591 50.7526882,12.4502688 51.0698925,12.9260753 C51.4663978,13.4018817 52.1801075,13.4811828 52.655914,13.1639785 C53.2110215,12.7674731 53.2903226,12.0537634 52.8938172,11.577957 Z M50.3561828,8.6438172 C49.8803763,8.16801075 49.2459677,8.16801075 48.7701613,8.6438172 C48.2943548,9.11962366 48.2943548,9.75403226 48.7701613,10.2298387 C49.2459677,10.7056452 49.8803763,10.7056452 50.3561828,10.2298387 C50.8319892,9.75403226 50.8319892,9.04032258 50.3561828,8.6438172 Z M47.422043,6.1061828 C46.9462366,5.70967742 46.2325269,5.78897849 45.8360215,6.34408602 C45.4395161,6.89919355 45.5188172,7.53360215 46.0739247,7.93010753 C46.5497312,8.3266129 47.2634409,8.24731183 47.6599462,7.6922043 C48.0564516,7.13709677 47.9771505,6.50268817 47.422043,6.1061828 Z M44.25,3.96505376 C43.6948925,3.64784946 43.0604839,3.80645161 42.7432796,4.36155914 C42.4260753,4.91666667 42.5846774,5.55107527 43.1397849,5.86827957 C43.6948925,6.18548387 44.3293011,6.02688172 44.6465054,5.47177419 C44.9637097,4.91666667 44.8051075,4.28225806 44.25,3.96505376 Z M40.7607527,2.22043011 C40.2056452,1.98252688 39.5712366,2.22043011 39.3333333,2.85483871 C39.0954301,3.40994624 39.3333333,4.04435484 39.9677419,4.28225806 C40.5228495,4.52016129 41.1572581,4.28225806 41.3951613,3.64784946 C41.6330645,3.17204301 41.3951613,2.45833333 40.7607527,2.22043011 Z M37.1129032,1.03091398 C36.4784946,0.872311828 35.9233871,1.18951613 35.7647849,1.82392473 C35.6061828,2.45833333 35.9233871,3.01344086 36.5577957,3.17204301 C37.1922043,3.33064516 37.7473118,3.01344086 37.905914,2.37903226 C38.0645161,1.74462366 37.7473118,1.18951613 37.1129032,1.03091398 Z M33.3857527,0.237903226 C32.7513441,0.158602151 32.1962366,0.555107527 32.1169355,1.18951613 C32.0376344,1.82392473 32.4341398,2.37903226 33.0685484,2.45833333 C33.702957,2.53763441 34.2580645,2.14112903 34.3373656,1.50672043 C34.4166667,0.872311828 33.9408602,0.317204301 33.3857527,0.237903226 Z M16.0188172,24.4247312 C15.7016129,24.266129 15.3051075,24.186828 14.8293011,24.186828 C13.7983871,24.186828 13.2432796,24.6626344 13.2432796,25.4556452 C13.2432796,26.0900538 13.6397849,26.4865591 14.4327957,26.5658602 L15.6223118,26.7244624 C17.4462366,26.9623656 18.2392473,27.9139785 18.2392473,29.5793011 C18.2392473,31.4825269 16.811828,32.5927419 14.4327957,32.5927419 C13.6397849,32.5927419 12.9260753,32.4341398 12.2916667,32.1962366 C11.8158602,32.0376344 11.4986559,31.7997312 10.9435484,31.2446237 L12.2123656,29.9758065 C12.608871,30.2930108 12.7674731,30.3723118 13.0846774,30.530914 C13.5604839,30.6895161 14.0362903,30.7688172 14.5913978,30.7688172 C15.780914,30.7688172 16.3360215,30.3723118 16.3360215,29.5 C16.3360215,28.7862903 15.9395161,28.469086 15.1465054,28.3104839 L13.9569892,28.1518817 C12.2123656,27.9139785 11.3400538,26.9623656 11.3400538,25.4556452 C11.3400538,23.5524194 12.688172,22.4422043 14.9086022,22.4422043 C15.5430108,22.4422043 16.1774194,22.5215054 16.7325269,22.7594086 C17.2083333,22.9180108 17.4462366,23.155914 18.0013441,23.5524194 L16.811828,24.7419355 C16.4153226,24.5833333 16.3360215,24.5040323 16.0188172,24.4247312 Z M20.063172,32.4341398 L20.063172,22.6008065 L21.9663978,22.6008065 L21.9663978,32.4341398 L20.063172,32.4341398 Z M30.1344086,32.4341398 L26.1693548,26.4072581 L26.1693548,32.4341398 L24.266129,32.4341398 L24.266129,22.6008065 L26.0107527,22.6008065 L29.8965054,28.6276882 L29.8965054,22.6008065 L31.7997312,22.6008065 L31.7997312,32.4341398 L30.1344086,32.4341398 Z M38.8575269,32.2755376 C38.4610215,32.4341398 37.905914,32.5134409 37.4301075,32.5134409 C36.3991935,32.5134409 35.4475806,32.1169355 34.733871,31.4032258 C33.7822581,30.4516129 33.7822581,29.1034946 33.7822581,27.438172 L33.7822581,27.0416667 C33.7822581,25.0591398 34.0201613,24.266129 34.733871,23.4731183 C35.4475806,22.7594086 36.3198925,22.3629032 37.4301075,22.3629032 C37.9852151,22.3629032 38.4610215,22.4422043 38.8575269,22.6008065 C39.3333333,22.7594086 39.5712366,22.9973118 40.1263441,23.4731183 L38.8575269,24.9005376 C38.3024194,24.3454301 37.9852151,24.186828 37.4301075,24.186828 C36.9543011,24.186828 36.4784946,24.3454301 36.1612903,24.6626344 C35.6854839,25.2177419 35.6854839,26.2486559 35.6854839,27.2002688 L35.6854839,27.7553763 C35.6854839,29.3413978 35.7647849,29.8965054 36.1612903,30.2930108 C36.4784946,30.6102151 36.875,30.7688172 37.4301075,30.7688172 C37.9852151,30.7688172 38.3817204,30.6102151 38.8575269,30.0551075 L40.1263441,31.3239247 C39.6505376,31.8790323 39.3333333,32.1169355 38.8575269,32.2755376 Z M41.8709677,32.4341398 L41.8709677,22.6008065 L48.3736559,22.6008065 L48.3736559,24.3454301 L43.7741935,24.3454301 L43.7741935,26.6451613 L47.6599462,26.6451613 L47.6599462,28.3897849 L43.7741935,28.3897849 L43.7741935,30.7688172 L48.3736559,30.7688172 L48.3736559,32.5134409 L41.8709677,32.5134409 L41.8709677,32.4341398 Z M15.7016129,45.8360215 L15.7016129,44.25 L19.3494624,39.9677419 C19.7459677,39.5712366 19.8252688,39.1747312 19.8252688,38.7782258 C19.8252688,37.9852151 19.3494624,37.5094086 18.6357527,37.5094086 C17.8427419,37.5094086 17.4462366,37.905914 17.4462366,38.7782258 L15.6223118,38.7782258 C15.6223118,38.1438172 15.7016129,37.905914 15.8602151,37.5887097 C16.3360215,36.5577957 17.3669355,35.9233871 18.6357527,35.9233871 C20.3803763,35.9233871 21.6491935,37.1129032 21.6491935,38.7782258 C21.6491935,39.5712366 21.4112903,40.047043 20.6182796,41.077957 L17.8427419,44.25 L21.6491935,44.25 L21.6491935,45.8360215 L15.7016129,45.8360215 Z M26.1693548,45.9153226 C24.4247312,45.9153226 23.155914,44.7258065 23.155914,42.9811828 L23.155914,38.8575269 C23.155914,37.1129032 24.4247312,35.9233871 26.1693548,35.9233871 C27.9139785,35.9233871 29.1827957,37.1129032 29.1827957,38.8575269 L29.1827957,42.9811828 C29.1827957,44.7258065 27.9139785,45.9153226 26.1693548,45.9153226 Z M26.1693548,44.3293011 C26.8830645,44.3293011 27.358871,43.7741935 27.358871,42.9811828 L27.358871,38.8575269 C27.358871,38.0645161 26.8830645,37.5094086 26.1693548,37.5094086 C25.4556452,37.5094086 24.9798387,38.0645161 24.9798387,38.8575269 L24.9798387,42.9811828 C24.9798387,43.7741935 25.4556452,44.3293011 26.1693548,44.3293011 Z M33.702957,45.9153226 C31.9583333,45.9153226 30.6895161,44.7258065 30.6895161,42.9811828 L30.6895161,38.8575269 C30.6895161,37.1129032 31.9583333,35.9233871 33.702957,35.9233871 C35.4475806,35.9233871 36.7163978,37.1129032 36.7163978,38.8575269 L36.7163978,42.9811828 C36.7163978,44.7258065 35.4475806,45.9153226 33.702957,45.9153226 Z M33.702957,44.3293011 C34.4166667,44.3293011 34.8924731,43.7741935 34.8924731,42.9811828 L34.8924731,38.8575269 C34.8924731,38.0645161 34.4166667,37.5094086 33.702957,37.5094086 C32.9892473,37.5094086 32.5134409,38.0645161 32.5134409,38.8575269 L32.5134409,42.9811828 C32.5134409,43.7741935 32.9892473,44.3293011 33.702957,44.3293011 Z M41.2365591,45.8360215 L39.2540323,45.8360215 L42.4260753,37.5887097 L39.8091398,37.5887097 L39.8091398,39.1747312 L38.0645161,39.1747312 L38.0645161,36.0026882 L44.4086022,36.0026882 L44.4086022,37.5887097 L41.2365591,45.8360215 Z" id="Shape"></path>
            </g>
        </g>
    </g>
</svg>