<?xml version="1.0" encoding="utf-8"?><!DOCTYPE svg PUBLIC "-//W3C//DTD SVG 1.1//EN" "http://www.w3.org/Graphics/SVG/1.1/DTD/svg11.dtd"><svg xmlns="http://www.w3.org/2000/svg" xmlns:xlink="http://www.w3.org/1999/xlink"><symbol viewBox="0 0 6 10" id="arrow-left" xmlns="http://www.w3.org/2000/svg"><path fill-rule="evenodd" d="M6 1.17L4.86 0 0 5l4.86 5L6 8.83 2.27 5 6 1.17z"/></symbol><symbol viewBox="0 0 6 10" id="arrow-right" xmlns="http://www.w3.org/2000/svg"><path fill-rule="evenodd" d="M0 1.17L1.14 0 6 5l-4.86 5L0 8.83 3.73 5 0 1.17z"/></symbol><symbol viewBox="0 0 306 306" id="expand-button" xmlns="http://www.w3.org/2000/svg"><path d="M270.3 58.65L153 175.95 35.7 58.65 0 94.35l153 153 153-153z"/></symbol><symbol viewBox="0 0 10 16" id="location" xmlns="http://www.w3.org/2000/svg"><path d="M5 0a5 5 0 0 0-5 5c0 1.81.82 4.19 2.44 7.09a41.13 41.13 0 0 0 2.43 3.82A.19.19 0 0 0 5 16a.16.16 0 0 0 .14-.08s1.22-1.85 2.41-4.09C9.18 8.8 10 6.51 10 5a5 5 0 0 0-5-5zm0 7.46a2.32 2.32 0 1 1 2.31-2.32A2.31 2.31 0 0 1 5 7.46z" fill-rule="evenodd"/></symbol><symbol viewBox="0 0 14 10" id="mail" xmlns="http://www.w3.org/2000/svg"><path fill-rule="evenodd" d="M12.2 0H1.64A1.58 1.58 0 0 0 0 1.5v7A1.58 1.58 0 0 0 1.64 10H12.2a1.57 1.57 0 0 0 1.64-1.5v-7A1.57 1.57 0 0 0 12.2 0zm-.63 1.32L6.92 5.07 2.28 1.32zm.88 7.18c0 .09-.12.18-.25.18H1.64c-.13 0-.25-.09-.25-.18V2.43l4.78 3.83a.55.55 0 0 0 .35.12h.81a.57.57 0 0 0 .35-.12l4.77-3.83z"/></symbol><symbol viewBox="0 0 298.667 298.667" id="pause" xmlns="http://www.w3.org/2000/svg"><path d="M192 0h85.333v298.667H192zM21.333 0h85.333v298.667H21.333z"/></symbol><symbol viewBox="0 0 13 13" id="phone" xmlns="http://www.w3.org/2000/svg"><path d="M12.65 9.8L10 8.24a.68.68 0 0 0-.37-.09.89.89 0 0 0-.63.22l-.78.8a.19.19 0 0 1-.09.05h-.27A2.5 2.5 0 0 1 7.4 9a7.33 7.33 0 0 1-.81-.52 9.52 9.52 0 0 1-1.1-1 9.3 9.3 0 0 1-1-1.1A5.64 5.64 0 0 1 4 5.6a2.37 2.37 0 0 1-.25-.66.58.58 0 0 1 0-.1.19.19 0 0 1 .05-.09l.67-.67a.91.91 0 0 0 .24-.44.74.74 0 0 0-.07-.49L3.2.36A1.2 1.2 0 0 0 3 .1a.51.51 0 0 0-.36-.1.61.61 0 0 0-.44.19L.37 2a1 1 0 0 0-.23.33 1.17 1.17 0 0 0-.14.41V3a3.15 3.15 0 0 0 .06.68 6.19 6.19 0 0 0 .26 1A8.48 8.48 0 0 0 .9 6.07a11.57 11.57 0 0 0 1 1.6 15.4 15.4 0 0 0 1.61 1.82 14.22 14.22 0 0 0 2.29 1.93 11.81 11.81 0 0 0 1.92 1.05 6.58 6.58 0 0 0 1.43.44A6.31 6.31 0 0 0 10 13h.27a1.37 1.37 0 0 0 .39-.13 1 1 0 0 0 .32-.23l1.83-1.82a.61.61 0 0 0 .19-.55.69.69 0 0 0-.35-.47z" fill-rule="evenodd"/></symbol><symbol viewBox="0 0 32 28" id="plane" xmlns="http://www.w3.org/2000/svg"><path d="M31.65.2a.8.8 0 0 0-.81-.13L.94 12.42a1.59 1.59 0 0 0 .17 3L12.81 19l.43 8.18a.83.83 0 0 0 .8.76.82.82 0 0 0 .6-.27L18.78 23l5.86 4.12a1.56 1.56 0 0 0 .88.28 1.59 1.59 0 0 0 1.54-1.27L31.92 1a.81.81 0 0 0-.27-.8zM13.36 17.45L1.67 13.87 28.15 2.93zm1.36 7.68L14.46 20l3 2.1zm10.78.63l-10.67-7.5 15-14.68z" fill-rule="evenodd"/></symbol><symbol viewBox="0 0 357 357" id="play" xmlns="http://www.w3.org/2000/svg"><path d="M38.25 0v357l280.5-178.5z"/></symbol><symbol viewBox="0 0 86 86" id="play-bold" xmlns="http://www.w3.org/2000/svg"><path d="M43 86a43 43 0 1 1 43-43 43 43 0 0 1-43 43zm0-83a40 40 0 1 0 40 40A40 40 0 0 0 43 3z"/><path d="M36.99 34v19l18-9.5-18-9.5z"/></symbol></svg>