<svg height="59" viewBox="0 0 59 59" width="59" xmlns="http://www.w3.org/2000/svg"><path d="m26.0900538 18.952957.6344086-3.5685484-2.5376344-2.5376344 3.5685483-.5551075 1.5860215-3.25134412 1.5860216 3.25134412 3.5685483.5551075-2.5376344 2.5376344.6344086 3.5685484-3.172043-1.6653226zm3.172043-2.5376344 2.141129 1.110215-.3965054-2.3790322 1.7446237-1.6653226-2.3790323-.3172043-1.030914-2.141129-1.0309139 2.141129-2.3790323.3172043 1.7446237 1.6653226-.3965054 2.3790322zm.2379032-16.4153226c-.6344086 0-1.1102151.47580645-1.1102151 1.11021505 0 .63440861.4758065 1.11021506 1.1102151 1.11021506s1.1102151-.47580645 1.1102151-1.11021506c0-.6344086-.4758065-1.11021505-1.1102151-1.11021505zm-3.8857527.23790323c-.6344086.07930107-1.030914.6344086-.9516129 1.2688172s.6344086 1.03091398 1.2688172.9516129c.6344086-.07930107 1.030914-.6344086.9516129-1.2688172s-.6344086-1.03091398-1.2688172-.9516129zm-3.7271505.79301075c-.6344086.15860215-.9516129.79301075-.7930108 1.34811828.1586022.55510752.7930108.9516129 1.3481183.79301075.6344086-.15860215.9516129-.79301075.7930108-1.34811828-.1586022-.6344086-.7930108-.9516129-1.3481183-.79301075zm-3.6478495 1.18951613c-.5551075.23790322-.8723118.87231183-.6344086 1.42741935.2379032.55510753.8723118.87231183 1.4274194.6344086.5551075-.23790322.8723118-.87231182.6344086-1.42741935-.2379033-.55510753-.8723119-.87231183-1.4274194-.6344086zm-3.4892473 1.74462365c-.5551075.3172043-.7137097 1.03091398-.3965054 1.50672043.3172043.55510753 1.030914.71370968 1.5067205.39650538.5551075-.3172043.7137096-1.03091398.3965053-1.50672043-.3172043-.55510753-.9516129-.71370968-1.5067204-.39650538zm-3.172043 2.14112904c-.4758065.39650537-.5551075 1.11021505-.2379032 1.5860215.3965053.47580645 1.110215.55510753 1.5860215.23790323.4758064-.39650538.5551075-1.11021506.2379032-1.58602151s-1.1102151-.6344086-1.5860215-.23790322zm-2.9341398 2.5376344c-.47580645.47580646-.47580645 1.11021506 0 1.5860215.47580646.4758065 1.11021506.4758065 1.5860215 0 .4758065-.47580644.4758065-1.11021504 0-1.5860215-.47580644-.47580645-1.18951612-.47580645-1.5860215 0zm-2.5376344 2.9341398c-.39650538.4758064-.31720431 1.1895161.23790322 1.5860215s1.18951613.3172043 1.58602151-.2379032c.39650537-.4758065.3172043-1.1895162-.23790323-1.5860215-.55510753-.3965054-1.18951613-.3172043-1.5860215.2379032zm-2.14112904 3.172043c-.3172043.5551075-.15860215 1.1895161.39650538 1.5067204s1.18951613.1586022 1.50672043-.3965053c.3172043-.5551076.15860215-1.1895162-.39650538-1.5067205-.55510752-.3172043-1.18951613-.1586021-1.50672043.3965054zm-1.74462365 3.4892473c-.23790323.5551075 0 1.1895161.6344086 1.4274194.6344086.2379032 1.18951613 0 1.42741935-.6344086.23790323-.5551076 0-1.1895162-.6344086-1.4274194s-1.18951613 0-1.42741935.6344086zm-1.18951613 3.6478495c-.15860215.6344086.15860215 1.1895161.79301075 1.3481183.6344086.1586021 1.18951613-.1586022 1.34811828-.7930108s-.15860215-1.1895161-.79301075-1.3481183c-.6344086-.1586021-1.18951613.1586022-1.34811828.7930108zm-.79301075 3.7271505c-.07930108.6344086.3172043 1.1895161.9516129 1.2688172s1.18951613-.3172043 1.2688172-.9516129c.07930108-.6344086-.3172043-1.1895161-.9516129-1.2688172s-1.18951613.3965054-1.2688172.9516129zm-.23790323 3.8857527c0 .6344086.47580645 1.1102151 1.11021505 1.1102151.63440861 0 1.11021506-.4758065 1.11021506-1.1102151s-.47580645-1.1102151-1.11021506-1.1102151c-.6344086 0-1.11021505.4758065-1.11021505 1.1102151zm.23790323 3.8857527c.07930107.6344086.6344086 1.030914 1.2688172.9516129s1.03091398-.6344086.9516129-1.2688172c-.07930107-.6344086-.6344086-1.030914-1.2688172-.9516129-.55510753.0793011-1.03091398.6344086-.9516129 1.2688172zm.79301075 3.7271505c.15860215.6344086.79301075.9516129 1.34811828.7930108.6344086-.1586022.9516129-.7930108.79301075-1.3481183-.15860215-.6344086-.79301075-.9516129-1.34811828-.7930108-.6344086.1586022-.9516129.7930108-.79301075 1.3481183zm1.18951613 3.6478495c.23790322.5551075.87231183.8723118 1.42741935.6344086.55510753-.2379032.87231183-.8723118.6344086-1.4274194-.23790322-.5551075-.87231182-.8723118-1.42741935-.6344086-.55510753.2379033-.87231183.8723119-.6344086 1.4274194zm1.74462365 3.4892473c.3172043.5551075 1.03091398.7137097 1.50672043.3965054.55510753-.3172043.71370968-1.030914.39650538-1.5067205-.3172043-.5551075-1.03091398-.7137096-1.50672043-.3965053-.55510753.3172043-.71370968.9516129-.39650538 1.5067204zm2.14112904 3.172043c.39650537.4758065 1.11021505.5551075 1.5860215.2379032.47580645-.3965053.55510753-1.110215.23790323-1.5860215-.39650538-.4758064-1.11021506-.5551075-1.58602151-.2379032s-.6344086 1.1102151-.23790322 1.5860215zm2.5376344 2.9341398c.47580646.4758064 1.11021506.4758064 1.5860215 0 .4758065-.4758065.4758065-1.1102151 0-1.5860215-.47580644-.4758065-1.11021504-.4758065-1.5860215 0-.47580645.4758064-.47580645 1.1895161 0 1.5860215zm2.9341398 2.5376344c.4758064.3965054 1.1895161.3172043 1.5860215-.2379032.3965054-.4758065.3172043-1.1895162-.2379032-1.5860215-.4758065-.3965054-1.1895162-.3172043-1.5860215.2379032-.3965054.5551075-.3172043 1.1895161.2379032 1.5860215zm3.172043 2.141129c.5551075.3172043 1.1895161.1586022 1.5067204-.3965053.3172043-.5551076.1586022-1.1895162-.3965053-1.5067205-.5551076-.3172043-1.1895162-.1586021-1.5067205.3965054s-.1586021 1.1895161.3965054 1.5067204zm3.4892473 1.7446237c.5551075.2379032 1.1895161 0 1.4274194-.6344086.2379032-.6344086 0-1.1895161-.6344086-1.4274194-.5551076-.2379032-1.1895162 0-1.4274194.6344086-.2379032.4758065 0 1.1895162.6344086 1.4274194zm3.6478495 1.1895161c.6344086.1586022 1.1895161-.1586021 1.3481183-.7930107.1586021-.6344086-.1586022-1.1895162-.7930108-1.3481183-.6344086-.1586022-1.1895161.1586021-1.3481183.7930107-.1586021.6344086.1586022 1.1895162.7930108 1.3481183zm3.7271505.7930108c.6344086.079301 1.1895161-.3172043 1.2688172-.9516129s-.3172043-1.1895162-.9516129-1.2688172c-.6344086-.0793011-1.1895161.3172043-1.2688172.9516129s.3965054 1.1895161.9516129 1.2688172zm3.8857527.2379032c.6344086 0 1.1102151-.4758065 1.1102151-1.1102151s-.4758065-1.110215-1.1102151-1.110215-1.1102151.4758064-1.1102151 1.110215.4758065 1.1102151 1.1102151 1.1102151zm3.8857527-.2379032c.6344086-.0793011 1.030914-.6344086.9516129-1.2688172s-.6344086-1.030914-1.2688172-.9516129c-.6344086.079301-1.030914.6344086-.9516129 1.2688172.0793011.5551075.6344086 1.0309139 1.2688172.9516129zm3.7271505-.7930108c.6344086-.1586021.9516129-.7930107.7930108-1.3481183-.1586022-.6344086-.7930108-.9516129-1.3481183-.7930107-.6344086.1586021-.9516129.7930107-.7930108 1.3481183.1586022.6344086.7930108.9516129 1.3481183.7930107zm3.6478495-1.1895161c.5551075-.2379032.8723118-.8723118.6344086-1.4274194-.2379032-.5551075-.8723118-.8723118-1.4274194-.6344086-.5551075.2379033-.8723118.8723119-.6344086 1.4274194.2379033.5551075.8723119.8723118 1.4274194.6344086zm3.4892473-1.7446237c.5551075-.3172043.7137097-1.0309139.3965054-1.5067204-.3172043-.5551075-1.030914-.7137097-1.5067205-.3965054-.4758064.3172043-.7137096 1.030914-.3965053 1.5067205.3172043.5551075.9516129.7137096 1.5067204.3965053zm3.172043-2.141129c.4758065-.3965054.5551075-1.110215.2379032-1.5860215-.3965053-.4758065-1.110215-.5551075-1.5860215-.2379032-.4758064.3965053-.5551075 1.110215-.2379032 1.5860215.3965054.5551075 1.1102151.6344086 1.5860215.2379032zm2.9341398-2.5376344c.4758064-.4758065.4758064-1.1102151 0-1.5860215-.4758065-.4758065-1.1102151-.4758065-1.5860215 0-.4758065.4758064-.4758065 1.110215 0 1.5860215.4758064.4758064 1.1895161.4758064 1.5860215 0zm2.5376344-2.9341398c.3965054-.4758064.3172043-1.1895161-.2379032-1.5860215-.4758065-.3965054-1.1895162-.3172043-1.5860215.2379032-.3965054.4758065-.3172043 1.1895162.2379032 1.5860215.5551075.3965054 1.1895161.3172043 1.5860215-.2379032zm2.141129-3.172043c.3172043-.5551075.1586022-1.1895161-.3965053-1.5067204-.5551076-.3172043-1.1895162-.1586022-1.5067205.3965053-.3172043.5551076-.1586021 1.1895162.3965054 1.5067205s1.1895161.1586021 1.5067204-.3965054zm1.7446237-3.4892473c.2379032-.5551075 0-1.1895161-.6344086-1.4274194-.5551075-.2379032-1.1895161 0-1.4274194.6344086-.2379032.5551076 0 1.1895162.6344086 1.4274194.4758065.2379032 1.1895162 0 1.4274194-.6344086zm1.1895161-3.6478495c.1586022-.6344086-.1586021-1.1895161-.7930107-1.3481183-.6344086-.1586021-1.1895162.1586022-1.3481183.7930108-.1586022.6344086.1586021 1.1895161.7930107 1.3481183.6344086.1586021 1.1895162-.1586022 1.3481183-.7930108zm.7930108-3.7271505c.079301-.6344086-.3172043-1.1895161-.9516129-1.2688172s-1.1895162.3172043-1.2688172.9516129c-.0793011.6344086.3172043 1.1895161.9516129 1.2688172s1.1895161-.3965054 1.2688172-.9516129zm.2379032-3.8857527c0-.6344086-.4758065-1.1102151-1.1102151-1.1102151s-1.110215.4758065-1.110215 1.1102151.4758064 1.1102151 1.110215 1.1102151 1.1102151-.4758065 1.1102151-1.1102151zm-.2379032-3.8857527c-.0793011-.6344086-.6344086-1.030914-1.2688172-.9516129s-1.030914.6344086-.9516129 1.2688172c.079301.6344086.6344086 1.030914 1.2688172.9516129.5551075-.0793011 1.0309139-.6344086.9516129-1.2688172zm-.7930108-3.7271505c-.1586021-.6344086-.7930107-.9516129-1.3481183-.7930108-.5551075.1586022-.9516129.7930108-.7930107 1.3481183.1586021.6344086.7930107.9516129 1.3481183.7930108.6344086-.1586022.9516129-.7930108.7930107-1.3481183zm-1.1895161-3.6478495c-.2379032-.5551075-.8723118-.8723118-1.4274194-.6344086-.6344086.2379032-.8723118.8723118-.6344086 1.4274194.2379033.5551075.8723119.8723118 1.4274194.6344086.5551075-.2379033.8723118-.8723119.6344086-1.4274194zm-1.7446237-3.4892473c-.3172043-.5551075-1.0309139-.7137097-1.5067204-.3965054-.5551075.3172043-.7137097 1.030914-.3965054 1.5067205.3172043.5551075 1.030914.7137096 1.5067205.3965053.5551075-.3172043.7137096-.9516129.3965053-1.5067204zm-2.141129-3.172043c-.3965054-.4758065-1.110215-.5551075-1.5860215-.2379032-.4758065.3965053-.5551075 1.110215-.2379032 1.5860215.3965053.4758064 1.110215.5551075 1.5860215.2379032.5551075-.3965054.6344086-1.1102151.2379032-1.5860215zm-2.5376344-2.9341398c-.4758065-.47580645-1.1102151-.47580645-1.5860215 0-.4758065.47580646-.4758065 1.11021506 0 1.5860215.4758064.4758065 1.110215.4758065 1.5860215 0 .4758064-.47580644.4758064-1.18951612 0-1.5860215zm-2.9341398-2.5376344c-.4758064-.39650538-1.1895161-.31720431-1.5860215.23790322s-.3172043 1.18951613.2379032 1.58602151c.4758065.39650537 1.1895162.3172043 1.5860215-.23790323.3965054-.55510753.3172043-1.18951613-.2379032-1.5860215zm-3.172043-2.14112904c-.5551075-.3172043-1.1895161-.15860215-1.5067204.39650538s-.1586022 1.18951613.3965053 1.50672043c.5551076.3172043 1.1895162.15860215 1.5067205-.39650538.3172043-.55510752.1586021-1.18951613-.3965054-1.50672043zm-3.4892473-1.74462365c-.5551075-.23790323-1.1895161 0-1.4274194.6344086-.2379032.55510753 0 1.18951613.6344086 1.42741935.5551076.23790323 1.1895162 0 1.4274194-.6344086.2379032-.47580645 0-1.18951613-.6344086-1.42741935zm-3.6478495-1.18951613c-.6344086-.15860215-1.1895161.15860215-1.3481183.79301075-.1586021.6344086.1586022 1.18951613.7930108 1.34811828s1.1895161-.15860215 1.3481183-.79301075c.1586021-.6344086-.1586022-1.18951613-.7930108-1.34811828zm-3.7271505-.79301075c-.6344086-.07930108-1.1895161.3172043-1.2688172.9516129s.3172043 1.18951613.9516129 1.2688172c.6344086.07930108 1.1895161-.3172043 1.2688172-.9516129s-.3965054-1.18951613-.9516129-1.2688172zm-17.3669355 24.18682797c-.3172043-.1586022-.7137097-.2379032-1.1895161-.2379032-1.030914 0-1.5860215.4758064-1.5860215 1.2688172 0 .6344086.3965053 1.0309139 1.1895161 1.110215l1.1895161.1586022c1.8239248.2379032 2.6169355 1.1895161 2.6169355 2.8548387 0 1.9032258-1.4274193 3.0134408-3.8064516 3.0134408-.7930108 0-1.5067204-.1586021-2.141129-.3965053-.4758065-.1586022-.7930108-.3965054-1.3481183-.9516129l1.2688172-1.2688172c.3965054.3172043.5551075.3965053.8723118.5551075.4758065.1586021.9516129.2379032 1.5067204.2379032 1.1895162 0 1.7446237-.3965054 1.7446237-1.2688172 0-.7137097-.3965054-1.030914-1.1895161-1.1895161l-1.1895162-.1586022c-1.7446236-.2379032-2.6169354-1.1895161-2.6169354-2.6962365 0-1.9032258 1.3481182-3.0134409 3.5685484-3.0134409.6344086 0 1.2688172.0793011 1.8239247.3172043.4758064.1586022.7137097.3965054 1.2688172.7930108l-1.1895161 1.1895161c-.3965054-.1586022-.4758065-.2379032-.7930108-.3172043zm4.0443548 8.0094086v-9.8333333h1.9032258v9.8333333zm10.0712366 0-3.9650538-6.0268817v6.0268817h-1.9032258v-9.8333333h1.7446237l3.8857527 6.0268817v-6.0268817h1.9032258v9.8333333zm8.7231183-.1586022c-.3965054.1586022-.9516129.2379033-1.4274194.2379033-1.030914 0-1.9825269-.3965054-2.6962365-1.1102151-.9516129-.9516129-.9516129-2.2997312-.9516129-3.9650538v-.3965053c0-1.9825269.2379032-2.7755377.9516129-3.5685484.7137096-.7137097 1.5860215-1.1102151 2.6962365-1.1102151.5551076 0 1.030914.0793011 1.4274194.2379033.4758064.1586021.7137097.3965053 1.2688172.8723118l-1.2688172 1.4274193c-.5551075-.5551075-.8723118-.7137096-1.4274194-.7137096-.4758064 0-.9516129.1586021-1.2688172.4758064-.4758064.5551075-.4758064 1.5860215-.4758064 2.5376344v.5551075c0 1.5860215.079301 2.1411291.4758064 2.5376345.3172043.3172043.7137097.4758064 1.2688172.4758064.5551076 0 .9516129-.1586021 1.4274194-.7137097l1.2688172 1.2688172c-.4758065.5551076-.7930108.7930108-1.2688172.9516129zm3.0134408.1586022v-9.8333333h6.5026882v1.7446236h-4.5994624v2.2997312h3.8857527v1.7446236h-3.8857527v2.3790323h4.5994624v1.7446237h-6.5026882zm-26.1693548 13.4018817v-1.5860215l3.6478495-4.2822581c.3965053-.3965053.4758064-.7930107.4758064-1.1895161 0-.7930107-.4758064-1.2688172-1.1895161-1.2688172-.7930108 0-1.1895161.3965054-1.1895161 1.2688172h-1.8239248c0-.6344086.0793011-.8723118.2379033-1.1895161.4758064-1.030914 1.5067204-1.6653226 2.7755376-1.6653226 1.7446236 0 3.0134408 1.1895161 3.0134408 2.8548387 0 .7930108-.2379032 1.2688172-1.0309139 2.2997312l-2.7755377 3.172043h3.8064516v1.5860215zm10.4677419.0793011c-1.7446236 0-3.0134408-1.1895161-3.0134408-2.9341398v-4.1236559c0-1.7446237 1.2688172-2.9341398 3.0134408-2.9341398 1.7446237 0 3.0134409 1.1895161 3.0134409 2.9341398v4.1236559c0 1.7446237-1.2688172 2.9341398-3.0134409 2.9341398zm0-1.5860215c.7137097 0 1.1895162-.5551076 1.1895162-1.3481183v-4.1236559c0-.7930108-.4758065-1.3481183-1.1895162-1.3481183-.7137096 0-1.1895161.5551075-1.1895161 1.3481183v4.1236559c0 .7930107.4758065 1.3481183 1.1895161 1.3481183zm7.5336022 1.5860215c-1.7446237 0-3.0134409-1.1895161-3.0134409-2.9341398v-4.1236559c0-1.7446237 1.2688172-2.9341398 3.0134409-2.9341398 1.7446236 0 3.0134408 1.1895161 3.0134408 2.9341398v4.1236559c0 1.7446237-1.2688172 2.9341398-3.0134408 2.9341398zm0-1.5860215c.7137097 0 1.1895161-.5551076 1.1895161-1.3481183v-4.1236559c0-.7930108-.4758064-1.3481183-1.1895161-1.3481183s-1.1895161.5551075-1.1895161 1.3481183v4.1236559c0 .7930107.4758064 1.3481183 1.1895161 1.3481183zm7.5336021 1.5067204h-1.9825268l3.172043-8.2473118h-2.6169355v1.5860215h-1.7446237v-3.172043h6.3440861v1.5860215z" fill="#fff"/></svg>